<?xml version="1.0" encoding="UTF-8"?>
<svg version="1.1" viewBox="0 0 984 984" width="246" height="246" xmlns="http://www.w3.org/2000/svg">
<path transform="translate(90,340)" d="m0 0h108l12 1 10 5 9 9 8 14 6 18 3 16v35l-3 19-5 16-7 14-11 12-9 5-4 1h-118l-1-1-1-36v-90l1-37zm52 28v109h28l7-2 5-8 3-16v-63l-3-12-4-6-8-2z" fill="#060204"/>
<path transform="translate(262,340)" d="m0 0h122l10 2 8 6 6 10 3 8 1 4v25l-3 12-5 9-8 9-6 3h-4l6 11 13 24 6 10 6 12 6 10 2 9-1 1h-53l-6-8-15-27-13-24-12-22-2-5v-17l2-1 24-1 5-3 3-8v-10l-4-8-10-2h-28v133l-2 3h-52l-1-2v-159z" fill="#050103"/>
<path transform="translate(598,339)" d="m0 0h20l7 3 22 15 37 25 23 16 16 11 6 4v-71l1-2h23l2 2v157l-1 5-2 1h-17l-12-6-10-7-44-29-51-34-1 75-1 1h-23l-1-3v-162z" fill="#050204"/>
<path transform="translate(466,340)" d="m0 0h71l9 1 10 6 9 9 8 15 6 20 2 14v37l-4 19-5 15-7 13-11 11-7 4-4 1h-81l-12-6-10-11-8-16-5-17-3-20v-26l3-19 4-15 8-16 6-8 8-7 7-3zm24 28-6 3-4 5-2 7-1 12v52l2 17 5 10 3 2 5 1h19l7-2 6-9 2-11 1-11v-49l-2-16-4-7-4-3-5-1z" fill="#050103"/>
<path transform="translate(806,340)" d="m0 0h103v28l-51 1-22 1-4 4-3 7-1 5v67l2 11 5 10 5 2 69 1 1 1v26l-1 1h-105l-8-3-10-9-6-8-6-12-4-13-4-18-1-12v-14l2-19 5-20 5-12 5-9 4-5h2v-2l9-6z" fill="#060204"/>
<path transform="translate(332,543)" d="m0 0h31l9 1 6 4 6 8 6 14 2 9 1 11v15l-2 18-6 16-6 9-6 5-8 1h-65l-2-2v-106l1-2zm-1 19-1 1v71l1 1h16l5-2 3-7 1-7v-44l-2-9-2-3-4-1z" fill="#080406"/>
<path transform="translate(88,543)" d="m0 0h9l5 5 13 23 13 24 9 16 1 3 3-1 17-29 17-28 7-12 2-1h8l2 1v109l-3 1h-27l-1-2v-41l-3 3-11 20-10 17-3 3h-6l-6-5-14-22-10-16-1 39-1 1h-8l-3-2v-105z" fill="#060204"/>
<path transform="translate(634,543)" d="m0 0h14l7 3 28 22 12 9 14 11 6 4v-49h13l2 2v105l-1 4h-10l-12-7-18-14-38-28-2-2-1 50-2 1h-10l-3-1v-109z" fill="#080506"/>
<path transform="translate(764,543)" d="m0 0h47l3 3v15l-1 1-13 1h-23l-9-1v2l4 2 10 10 8 7 17 16 6 9 3 12v11l-2 10-4 8-4 4-4 1h-65l-1-1v-18l46-1-12-12-8-7-15-14-7-8-4-9v-24l4-10 6-6z" fill="#0B0709"/>
<path transform="translate(229,543)" d="m0 0h6l1 1 1 64 2 16 3 7 3 2 5 1h13l8-3 4-11 1-9 1-67h14v71l-3 17-6 12-4 5-7 4-7 1h-40l-7-3-6-5-6-12-3-12-1-17v-59l1-2z" fill="#090507"/>
<path transform="translate(569,543)" d="m0 0h6l4 5 15 29 12 25 22 44 1 7-2 1h-36l-5-8-11-22-11-23-6-13-4 5-9 19-10 19-2 4h38l1 2v16l-2 1h-54l-2-1 1-6 11-23 10-19 25-50 6-10z" fill="#0A0608"/>
<path transform="translate(851,543)" d="m0 0h42l13 1 1 1v15l-1 2-39 1-6 1-2 7-1 9v33l2 16 1 4 6 1 40 1v17l-4 2h-59l-6-3-7-7-5-10-4-13-1-7v-30l2-12 5-13 6-9 8-6z" fill="#0A0608"/>
<path transform="translate(438,543)" d="m0 0h37l8 16 13 29 1 3 3 1 3-9 16-34 3-5 2-1h7l1 2-16 34-14 29-1 44-2 2h-29l-2-2-1-43-11-23-13-28-5-12z" fill="#0B0709"/>
<path transform="translate(402,543)" d="m0 0h31l1 5v104l-3 2h-28l-2-6v-104z" fill="#141012"/>
<path transform="translate(839,401)" d="m0 0h68l2 2v25l-1 1h-71l-1-3v-23z" fill="#0D090B"/>
<path transform="translate(864,584)" d="m0 0h40l2 1v17l-1 1h-42v-18z" fill="#0B0709"/>
</svg>
