<svg width="1634" height="639" viewBox="0 0 1634 639" fill="none" xmlns="http://www.w3.org/2000/svg">
<path d="M160.827 269.639C148.827 307.639 137.161 359.139 132.827 380.139H106.827C105.227 373.339 113.827 337.305 118.327 320.139C119.661 314.972 126.027 294.139 140.827 252.139C155.627 210.139 187.161 162.472 199.327 145.139L204.327 148.639C202.661 151.305 195.827 158.139 193.827 161.139C189.827 167.139 193.327 174.139 195.827 175.639C210.827 184.639 228.827 209.639 232.327 224.639C217.827 204.139 195.827 193.639 191.327 190.639C186.827 187.639 187.327 188.639 183.827 188.639C176.327 197.639 166.327 254.639 160.827 269.639Z" fill="#15565A"/>
<path d="M357.327 415.139C318.527 482.739 256.161 528.639 229.827 543.139C227.994 542.305 220.327 539.139 204.327 533.139C272.327 491.639 282.827 473.139 295.827 459.639C354.973 380.139 362.827 346.139 370.827 325.139C397.827 251.139 388.827 192.139 386.327 177.139C369.827 106.139 336.827 90.1386 330.327 86.1386C304.327 67.7386 261.827 73.472 243.827 78.6386L235.827 80.6386L254.327 64.1387C257.327 62.1387 270.827 58.1387 289.827 54.1387C343.827 43.6386 374.827 71.1386 381.327 76.6386C401.827 94.6386 414.327 128.639 421.327 155.139C429.827 202.639 419.827 261.139 417.327 271.139C391.327 363.639 374.827 386.139 357.327 415.139Z" fill="#15565A"/>
<path d="M352.827 284.639C338.427 367.039 285.827 440.305 261.327 466.639C264.827 458.139 277.327 417.139 278.827 406.139C308.327 352.639 313.827 325.139 316.827 312.139C330.327 256.139 324.827 225.139 323.827 215.639C308.327 149.639 292.327 141.139 274.327 127.139C248.827 110.139 226.327 112.139 218.327 112.139C225.327 95.1386 228.827 96.1386 231.827 94.6386C241.827 91.1386 259.327 93.1386 265.827 94.6386C315.827 103.139 337.827 143.139 342.827 152.639C364.827 199.639 355.327 268.639 352.827 284.639Z" fill="#15565A"/>
<path d="M590.327 363.139C527.527 488.739 428.827 574.139 387.327 601.139C384.494 600.305 374.927 596.539 359.327 588.139C534.827 443.139 583.327 297.139 586.827 288.139C588.327 293.139 590.327 339.639 590.327 363.139Z" fill="#15565A"/>
<path d="M501.327 391.139C451.327 489.939 366.161 558.972 329.827 581.139C327.827 580.305 319.527 576.939 302.327 570.139C317.327 563.639 353.327 535.139 394.327 491.639C431.827 448.139 465.084 392.139 471.327 379.139C534.527 247.539 544.327 165.972 541.327 141.639C548.661 155.639 564.227 187.539 567.827 203.139C572.327 222.639 567.827 241.639 565.827 246.139C548.827 290.139 545.327 292.639 501.327 391.139Z" fill="#15565A"/>
<path d="M457.827 344.639C418.227 449.039 322.327 533.472 279.327 562.639L253.827 551.139C259.994 550.972 283.827 538.139 329.827 488.139C387.327 425.639 391.327 406.639 403.327 388.139C456.327 283.639 454.827 224.139 457.827 208.639C475.327 102.639 419.327 57.1387 408.327 47.1387C397.327 37.1387 366.327 27.6387 340.827 29.6387C315.327 31.6387 303.827 34.6387 281.827 47.1387C264.227 57.1387 233.494 83.972 220.327 96.1387C215.661 100.639 202.727 114.839 188.327 135.639C170.327 161.639 171.327 158.639 147.327 200.139C123.327 241.639 107.827 291.639 100.327 314.639C94.3274 333.039 88.8274 365.305 86.8274 379.139H65.8274C67.6607 365.472 73.3274 344.139 74.3274 337.139C75.357 329.932 86.8274 292.139 90.8274 280.139C115.827 207.639 145.827 171.639 151.827 163.139C158.128 154.213 206.661 100.805 224.327 84.1386C234.927 74.1386 252.827 57.1385 272.827 43.6386C288.827 32.8387 322.327 19.472 344.327 14.1386C366.327 11.1386 391.094 14.5653 408.327 18.6387C435.827 25.1386 453.827 36.6387 461.327 44.6387C470.789 54.7316 483.947 70.378 490.327 90.1386C500.565 121.848 501.327 158.639 501.327 158.639C507.818 237.52 461.467 336.84 457.843 344.604L457.827 344.639Z" fill="#15565A"/>
<path d="M449.327 624.639L416.827 613.639C419.827 613.639 455.827 581.639 490.827 551.639C525.827 521.639 575.327 451.139 584.327 440.139C576.327 489.639 570.327 502.639 565.327 519.639C532.527 560.039 474.327 606.472 449.327 624.639Z" fill="#15565A"/>
<path d="M294.827 229.139C299.227 290.339 288.994 329.972 283.327 342.139C277.827 331.639 270.827 296.139 268.327 288.139C265.827 200.639 246.327 185.139 246.327 185.139C232.327 166.139 209.161 152.305 196.827 148.639C199.161 145.139 205.027 136.739 209.827 131.139C248.827 142.139 256.327 151.639 262.827 156.639C285.827 176.139 293.827 220.639 294.827 229.139Z" fill="#15565A"/>
<path d="M79.8274 265.639C59.8274 308.439 51.8274 361.639 51.3274 380.139H30.3274C47.8274 284.639 64.3274 258.639 75.3274 237.139C84.3274 216.139 114.827 177.139 119.827 170.139C155.327 130.139 162.827 126.139 172.327 117.639C179.927 110.839 192.161 104.472 197.327 102.139C195.661 103.305 188.927 108.939 175.327 122.139C158.327 138.639 139.827 162.639 125.327 182.639C110.827 202.639 104.827 212.139 79.8274 265.639Z" fill="#15565A"/>
<path d="M40.3274 286.139C18.7274 333.739 15.9941 368.639 17.3274 380.139H0.327384C-1.17262 376.639 2.82738 355.639 5.32738 343.139C7.82738 330.639 17.3274 298.639 25.3274 281.139C36.8274 255.139 46.8274 239.639 59.8274 219.139C89.3274 175.639 112.327 160.639 121.827 153.139C131.327 145.639 139.827 142.139 136.327 144.639C132.827 147.139 121.827 160.139 118.327 163.139C95.3274 188.639 89.8274 197.139 83.3274 205.639C73.3274 218.716 45.8274 274.639 40.3274 286.139Z" fill="#15565A"/>
<path d="M679.787 105.22C679.787 90.26 683.161 76.84 689.907 64.96C696.654 52.9333 705.821 43.5467 717.407 36.8C729.141 30.0533 742.121 26.68 756.347 26.68C773.067 26.68 787.661 30.7133 800.127 38.78C812.594 46.8467 821.687 58.2867 827.407 73.1H803.427C799.174 63.86 793.014 56.7467 784.947 51.76C777.027 46.7733 767.494 44.28 756.347 44.28C745.641 44.28 736.034 46.7733 727.527 51.76C719.021 56.7467 712.347 63.86 707.507 73.1C702.667 82.1933 700.247 92.9 700.247 105.22C700.247 117.393 702.667 128.1 707.507 137.34C712.347 146.433 719.021 153.473 727.527 158.46C736.034 163.447 745.641 165.94 756.347 165.94C767.494 165.94 777.027 163.52 784.947 158.68C793.014 153.693 799.174 146.58 803.427 137.34H827.407C821.687 152.007 812.594 163.373 800.127 171.44C787.661 179.36 773.067 183.32 756.347 183.32C742.121 183.32 729.141 180.02 717.407 173.42C705.821 166.673 696.654 157.36 689.907 145.48C683.161 133.6 679.787 120.18 679.787 105.22ZM855.229 121.28C855.229 108.96 857.722 98.18 862.709 88.94C867.695 79.5533 874.515 72.2933 883.169 67.16C891.969 62.0267 901.722 59.46 912.429 59.46C922.989 59.46 932.155 61.7333 939.929 66.28C947.702 70.8267 953.495 76.5467 957.309 83.44V61.44H977.549V182H957.309V159.56C953.349 166.6 947.409 172.467 939.489 177.16C931.715 181.707 922.622 183.98 912.209 183.98C901.502 183.98 891.822 181.34 883.169 176.06C874.515 170.78 867.695 163.373 862.709 153.84C857.722 144.307 855.229 133.453 855.229 121.28ZM957.309 121.5C957.309 112.407 955.475 104.487 951.809 97.74C948.142 90.9933 943.155 85.86 936.849 82.34C930.689 78.6733 923.869 76.84 916.389 76.84C908.909 76.84 902.089 78.6 895.929 82.12C889.769 85.64 884.855 90.7733 881.189 97.52C877.522 104.267 875.689 112.187 875.689 121.28C875.689 130.52 877.522 138.587 881.189 145.48C884.855 152.227 889.769 157.433 895.929 161.1C902.089 164.62 908.909 166.38 916.389 166.38C923.869 166.38 930.689 164.62 936.849 161.1C943.155 157.433 948.142 152.227 951.809 145.48C955.475 138.587 957.309 130.593 957.309 121.5ZM1036.9 19.2V182H1016.88V19.2H1036.9ZM1186.52 117.1C1186.52 120.913 1186.3 124.947 1185.86 129.2H1089.5C1090.23 141.08 1094.27 150.393 1101.6 157.14C1109.08 163.74 1118.1 167.04 1128.66 167.04C1137.31 167.04 1144.5 165.06 1150.22 161.1C1156.09 156.993 1160.19 151.567 1162.54 144.82H1184.1C1180.87 156.407 1174.42 165.867 1164.74 173.2C1155.06 180.387 1143.03 183.98 1128.66 183.98C1117.22 183.98 1106.95 181.413 1097.86 176.28C1088.91 171.147 1081.87 163.887 1076.74 154.5C1071.61 144.967 1069.04 133.967 1069.04 121.5C1069.04 109.033 1071.53 98.1067 1076.52 88.72C1081.51 79.3333 1088.47 72.1467 1097.42 67.16C1106.51 62.0267 1116.93 59.46 1128.66 59.46C1140.1 59.46 1150.22 61.9533 1159.02 66.94C1167.82 71.9267 1174.57 78.82 1179.26 87.62C1184.1 96.2733 1186.52 106.1 1186.52 117.1ZM1165.84 112.92C1165.84 105.293 1164.15 98.7667 1160.78 93.34C1157.41 87.7667 1152.79 83.5867 1146.92 80.8C1141.2 77.8667 1134.82 76.4 1127.78 76.4C1117.66 76.4 1109.01 79.6267 1101.82 86.08C1094.78 92.5333 1090.75 101.48 1089.72 112.92H1165.84ZM1238.47 83.88C1242.57 76.6933 1248.59 70.8267 1256.51 66.28C1264.43 61.7333 1273.45 59.46 1283.57 59.46C1294.42 59.46 1304.17 62.0267 1312.83 67.16C1321.48 72.2933 1328.3 79.5533 1333.29 88.94C1338.27 98.18 1340.77 108.96 1340.77 121.28C1340.77 133.453 1338.27 144.307 1333.29 153.84C1328.3 163.373 1321.41 170.78 1312.61 176.06C1303.95 181.34 1294.27 183.98 1283.57 183.98C1273.15 183.98 1263.99 181.707 1256.07 177.16C1248.29 172.613 1242.43 166.82 1238.47 159.78V182H1218.45V19.2H1238.47V83.88ZM1320.31 121.28C1320.31 112.187 1318.47 104.267 1314.81 97.52C1311.14 90.7733 1306.15 85.64 1299.85 82.12C1293.69 78.6 1286.87 76.84 1279.39 76.84C1272.05 76.84 1265.23 78.6733 1258.93 82.34C1252.77 85.86 1247.78 91.0667 1243.97 97.96C1240.3 104.707 1238.47 112.553 1238.47 121.5C1238.47 130.593 1240.3 138.587 1243.97 145.48C1247.78 152.227 1252.77 157.433 1258.93 161.1C1265.23 164.62 1272.05 166.38 1279.39 166.38C1286.87 166.38 1293.69 164.62 1299.85 161.1C1306.15 157.433 1311.14 152.227 1314.81 145.48C1318.47 138.587 1320.31 130.52 1320.31 121.28ZM1482.62 117.1C1482.62 120.913 1482.4 124.947 1481.96 129.2H1385.6C1386.33 141.08 1390.37 150.393 1397.7 157.14C1405.18 163.74 1414.2 167.04 1424.76 167.04C1433.41 167.04 1440.6 165.06 1446.32 161.1C1452.19 156.993 1456.29 151.567 1458.64 144.82H1480.2C1476.97 156.407 1470.52 165.867 1460.84 173.2C1451.16 180.387 1439.13 183.98 1424.76 183.98C1413.32 183.98 1403.05 181.413 1393.96 176.28C1385.01 171.147 1377.97 163.887 1372.84 154.5C1367.71 144.967 1365.14 133.967 1365.14 121.5C1365.14 109.033 1367.63 98.1067 1372.62 88.72C1377.61 79.3333 1384.57 72.1467 1393.52 67.16C1402.61 62.0267 1413.03 59.46 1424.76 59.46C1436.2 59.46 1446.32 61.9533 1455.12 66.94C1463.92 71.9267 1470.67 78.82 1475.36 87.62C1480.2 96.2733 1482.62 106.1 1482.62 117.1ZM1461.94 112.92C1461.94 105.293 1460.25 98.7667 1456.88 93.34C1453.51 87.7667 1448.89 83.5867 1443.02 80.8C1437.3 77.8667 1430.92 76.4 1423.88 76.4C1413.76 76.4 1405.11 79.6267 1397.92 86.08C1390.88 92.5333 1386.85 101.48 1385.82 112.92H1461.94ZM1534.56 81.02C1538.08 74.1267 1543.07 68.7733 1549.52 64.96C1556.12 61.1467 1564.12 59.24 1573.5 59.24V79.92H1568.22C1545.78 79.92 1534.56 92.0933 1534.56 116.44V182H1514.54V61.44H1534.56V81.02Z" fill="#191D1D"/>
<path d="M764.047 306.02C769.621 306.9 774.681 309.173 779.227 312.84C783.921 316.507 787.587 321.053 790.227 326.48C793.014 331.907 794.407 337.7 794.407 343.86C794.407 351.633 792.427 358.673 788.467 364.98C784.507 371.14 778.714 376.053 771.087 379.72C763.607 383.24 754.734 385 744.467 385H687.267V231.66H742.267C752.681 231.66 761.554 233.42 768.887 236.94C776.221 240.313 781.721 244.933 785.387 250.8C789.054 256.667 790.887 263.267 790.887 270.6C790.887 279.693 788.394 287.247 783.407 293.26C778.567 299.127 772.114 303.38 764.047 306.02ZM707.287 297.88H740.947C750.334 297.88 757.594 295.68 762.727 291.28C767.861 286.88 770.427 280.793 770.427 273.02C770.427 265.247 767.861 259.16 762.727 254.76C757.594 250.36 750.187 248.16 740.507 248.16H707.287V297.88ZM742.707 368.5C752.681 368.5 760.454 366.153 766.027 361.46C771.601 356.767 774.387 350.24 774.387 341.88C774.387 333.373 771.454 326.7 765.587 321.86C759.721 316.873 751.874 314.38 742.047 314.38H707.287V368.5H742.707ZM924.709 264.44V385H904.689V367.18C900.876 373.34 895.523 378.18 888.629 381.7C881.883 385.073 874.403 386.76 866.189 386.76C856.803 386.76 848.369 384.853 840.889 381.04C833.409 377.08 827.469 371.213 823.069 363.44C818.816 355.667 816.689 346.207 816.689 335.06V264.44H836.489V332.42C836.489 344.3 839.496 353.467 845.509 359.92C851.523 366.227 859.736 369.38 870.149 369.38C880.856 369.38 889.289 366.08 895.449 359.48C901.609 352.88 904.689 343.273 904.689 330.66V264.44H924.709ZM996.792 386.98C987.552 386.98 979.265 385.44 971.932 382.36C964.599 379.133 958.805 374.733 954.552 369.16C950.299 363.44 947.952 356.913 947.512 349.58H968.192C968.779 355.593 971.565 360.507 976.552 364.32C981.685 368.133 988.359 370.04 996.572 370.04C1004.2 370.04 1010.21 368.353 1014.61 364.98C1019.01 361.607 1021.21 357.353 1021.21 352.22C1021.21 346.94 1018.87 343.053 1014.17 340.56C1009.48 337.92 1002.22 335.353 992.392 332.86C983.445 330.513 976.112 328.167 970.392 325.82C964.819 323.327 959.979 319.733 955.872 315.04C951.912 310.2 949.932 303.893 949.932 296.12C949.932 289.96 951.765 284.313 955.432 279.18C959.099 274.047 964.305 270.013 971.052 267.08C977.799 264 985.499 262.46 994.152 262.46C1007.5 262.46 1018.28 265.833 1026.49 272.58C1034.71 279.327 1039.11 288.567 1039.69 300.3H1019.67C1019.23 293.993 1016.67 288.933 1011.97 285.12C1007.43 281.307 1001.27 279.4 993.492 279.4C986.305 279.4 980.585 280.94 976.332 284.02C972.079 287.1 969.952 291.133 969.952 296.12C969.952 300.08 971.199 303.38 973.692 306.02C976.332 308.513 979.559 310.567 983.372 312.18C987.332 313.647 992.759 315.333 999.652 317.24C1008.31 319.587 1015.35 321.933 1020.77 324.28C1026.2 326.48 1030.82 329.853 1034.63 334.4C1038.59 338.947 1040.65 344.887 1040.79 352.22C1040.79 358.82 1038.96 364.76 1035.29 370.04C1031.63 375.32 1026.42 379.5 1019.67 382.58C1013.07 385.513 1005.45 386.98 996.792 386.98ZM1074.99 244.86C1071.18 244.86 1067.95 243.54 1065.31 240.9C1062.67 238.26 1061.35 235.033 1061.35 231.22C1061.35 227.407 1062.67 224.18 1065.31 221.54C1067.95 218.9 1071.18 217.58 1074.99 217.58C1078.66 217.58 1081.74 218.9 1084.23 221.54C1086.87 224.18 1088.19 227.407 1088.19 231.22C1088.19 235.033 1086.87 238.26 1084.23 240.9C1081.74 243.54 1078.66 244.86 1074.99 244.86ZM1084.67 264.44V385H1064.65V264.44H1084.67ZM1173.13 262.24C1187.8 262.24 1199.68 266.713 1208.77 275.66C1217.87 284.46 1222.41 297.22 1222.41 313.94V385H1202.61V316.8C1202.61 304.773 1199.61 295.607 1193.59 289.3C1187.58 282.847 1179.37 279.62 1168.95 279.62C1158.39 279.62 1149.96 282.92 1143.65 289.52C1137.49 296.12 1134.41 305.727 1134.41 318.34V385H1114.39V264.44H1134.41V281.6C1138.37 275.44 1143.73 270.673 1150.47 267.3C1157.37 263.927 1164.92 262.24 1173.13 262.24ZM1360.72 320.1C1360.72 323.913 1360.5 327.947 1360.06 332.2H1263.7C1264.43 344.08 1268.46 353.393 1275.8 360.14C1283.28 366.74 1292.3 370.04 1302.86 370.04C1311.51 370.04 1318.7 368.06 1324.42 364.1C1330.28 359.993 1334.39 354.567 1336.74 347.82H1358.3C1355.07 359.407 1348.62 368.867 1338.94 376.2C1329.26 383.387 1317.23 386.98 1302.86 386.98C1291.42 386.98 1281.15 384.413 1272.06 379.28C1263.11 374.147 1256.07 366.887 1250.94 357.5C1245.8 347.967 1243.24 336.967 1243.24 324.5C1243.24 312.033 1245.73 301.107 1250.72 291.72C1255.7 282.333 1262.67 275.147 1271.62 270.16C1280.71 265.027 1291.12 262.46 1302.86 262.46C1314.3 262.46 1324.42 264.953 1333.22 269.94C1342.02 274.927 1348.76 281.82 1353.46 290.62C1358.3 299.273 1360.72 309.1 1360.72 320.1ZM1340.04 315.92C1340.04 308.293 1338.35 301.767 1334.98 296.34C1331.6 290.767 1326.98 286.587 1321.12 283.8C1315.4 280.867 1309.02 279.4 1301.98 279.4C1291.86 279.4 1283.2 282.627 1276.02 289.08C1268.98 295.533 1264.94 304.48 1263.92 315.92H1340.04ZM1425.42 386.98C1416.18 386.98 1407.9 385.44 1400.56 382.36C1393.23 379.133 1387.44 374.733 1383.18 369.16C1378.93 363.44 1376.58 356.913 1376.14 349.58H1396.82C1397.41 355.593 1400.2 360.507 1405.18 364.32C1410.32 368.133 1416.99 370.04 1425.2 370.04C1432.83 370.04 1438.84 368.353 1443.24 364.98C1447.64 361.607 1449.84 357.353 1449.84 352.22C1449.84 346.94 1447.5 343.053 1442.8 340.56C1438.11 337.92 1430.85 335.353 1421.02 332.86C1412.08 330.513 1404.74 328.167 1399.02 325.82C1393.45 323.327 1388.61 319.733 1384.5 315.04C1380.54 310.2 1378.56 303.893 1378.56 296.12C1378.56 289.96 1380.4 284.313 1384.06 279.18C1387.73 274.047 1392.94 270.013 1399.68 267.08C1406.43 264 1414.13 262.46 1422.78 262.46C1436.13 262.46 1446.91 265.833 1455.12 272.58C1463.34 279.327 1467.74 288.567 1468.32 300.3H1448.3C1447.86 293.993 1445.3 288.933 1440.6 285.12C1436.06 281.307 1429.9 279.4 1422.12 279.4C1414.94 279.4 1409.22 280.94 1404.96 284.02C1400.71 287.1 1398.58 291.133 1398.58 296.12C1398.58 300.08 1399.83 303.38 1402.32 306.02C1404.96 308.513 1408.19 310.567 1412 312.18C1415.96 313.647 1421.39 315.333 1428.28 317.24C1436.94 319.587 1443.98 321.933 1449.4 324.28C1454.83 326.48 1459.45 329.853 1463.26 334.4C1467.22 338.947 1469.28 344.887 1469.42 352.22C1469.42 358.82 1467.59 364.76 1463.92 370.04C1460.26 375.32 1455.05 379.5 1448.3 382.58C1441.7 385.513 1434.08 386.98 1425.42 386.98ZM1535.96 386.98C1526.72 386.98 1518.44 385.44 1511.1 382.36C1503.77 379.133 1497.98 374.733 1493.72 369.16C1489.47 363.44 1487.12 356.913 1486.68 349.58H1507.36C1507.95 355.593 1510.74 360.507 1515.72 364.32C1520.86 368.133 1527.53 370.04 1535.74 370.04C1543.37 370.04 1549.38 368.353 1553.78 364.98C1558.18 361.607 1560.38 357.353 1560.38 352.22C1560.38 346.94 1558.04 343.053 1553.34 340.56C1548.65 337.92 1541.39 335.353 1531.56 332.86C1522.62 330.513 1515.28 328.167 1509.56 325.82C1503.99 323.327 1499.15 319.733 1495.04 315.04C1491.08 310.2 1489.1 303.893 1489.1 296.12C1489.1 289.96 1490.94 284.313 1494.6 279.18C1498.27 274.047 1503.48 270.013 1510.22 267.08C1516.97 264 1524.67 262.46 1533.32 262.46C1546.67 262.46 1557.45 265.833 1565.66 272.58C1573.88 279.327 1578.28 288.567 1578.86 300.3H1558.84C1558.4 293.993 1555.84 288.933 1551.14 285.12C1546.6 281.307 1540.44 279.4 1532.66 279.4C1525.48 279.4 1519.76 280.94 1515.5 284.02C1511.25 287.1 1509.12 291.133 1509.12 296.12C1509.12 300.08 1510.37 303.38 1512.86 306.02C1515.5 308.513 1518.73 310.567 1522.54 312.18C1526.5 313.647 1531.93 315.333 1538.82 317.24C1547.48 319.587 1554.52 321.933 1559.94 324.28C1565.37 326.48 1569.99 329.853 1573.8 334.4C1577.76 338.947 1579.82 344.887 1579.96 352.22C1579.96 358.82 1578.13 364.76 1574.46 370.04C1570.8 375.32 1565.59 379.5 1558.84 382.58C1552.24 385.513 1544.62 386.98 1535.96 386.98Z" fill="#191D1D"/>
<path d="M735.887 610.54C725.767 610.54 716.674 608.78 708.607 605.26C700.687 601.593 694.454 596.607 689.907 590.3C685.361 583.847 683.014 576.44 682.867 568.08H704.207C704.941 575.267 707.874 581.353 713.007 586.34C718.287 591.18 725.914 593.6 735.887 593.6C745.421 593.6 752.901 591.253 758.327 586.56C763.901 581.72 766.687 575.56 766.687 568.08C766.687 562.213 765.074 557.447 761.847 553.78C758.621 550.113 754.587 547.327 749.747 545.42C744.907 543.513 738.381 541.46 730.167 539.26C720.047 536.62 711.907 533.98 705.747 531.34C699.734 528.7 694.527 524.593 690.127 519.02C685.874 513.3 683.747 505.673 683.747 496.14C683.747 487.78 685.874 480.373 690.127 473.92C694.381 467.467 700.321 462.48 707.947 458.96C715.721 455.44 724.594 453.68 734.567 453.68C748.941 453.68 760.674 457.273 769.767 464.46C779.007 471.647 784.214 481.18 785.387 493.06H763.387C762.654 487.193 759.574 482.06 754.147 477.66C748.721 473.113 741.534 470.84 732.587 470.84C724.227 470.84 717.407 473.04 712.127 477.44C706.847 481.693 704.207 487.707 704.207 495.48C704.207 501.053 705.747 505.6 708.827 509.12C712.054 512.64 715.941 515.353 720.487 517.26C725.181 519.02 731.707 521.073 740.067 523.42C750.187 526.207 758.327 528.993 764.487 531.78C770.647 534.42 775.927 538.6 780.327 544.32C784.727 549.893 786.927 557.52 786.927 567.2C786.927 574.68 784.947 581.72 780.987 588.32C777.027 594.92 771.161 600.273 763.387 604.38C755.614 608.487 746.447 610.54 735.887 610.54ZM860.168 610.98C848.875 610.98 838.608 608.413 829.368 603.28C820.275 598.147 813.088 590.887 807.808 581.5C802.675 571.967 800.108 560.967 800.108 548.5C800.108 536.18 802.748 525.327 808.028 515.94C813.455 506.407 820.788 499.147 830.028 494.16C839.268 489.027 849.608 486.46 861.048 486.46C872.488 486.46 882.828 489.027 892.068 494.16C901.308 499.147 908.568 506.333 913.848 515.72C919.275 525.107 921.988 536.033 921.988 548.5C921.988 560.967 919.202 571.967 913.628 581.5C908.202 590.887 900.795 598.147 891.408 603.28C882.022 608.413 871.608 610.98 860.168 610.98ZM860.168 593.38C867.355 593.38 874.102 591.693 880.408 588.32C886.715 584.947 891.775 579.887 895.588 573.14C899.548 566.393 901.528 558.18 901.528 548.5C901.528 538.82 899.622 530.607 895.808 523.86C891.995 517.113 887.008 512.127 880.848 508.9C874.688 505.527 868.015 503.84 860.828 503.84C853.495 503.84 846.748 505.527 840.588 508.9C834.575 512.127 829.735 517.113 826.068 523.86C822.402 530.607 820.568 538.82 820.568 548.5C820.568 558.327 822.328 566.613 825.848 573.36C829.515 580.107 834.355 585.167 840.368 588.54C846.382 591.767 852.982 593.38 860.168 593.38ZM959.531 446.2V609H939.511V446.2H959.531ZM1091.77 488.44V609H1071.75V591.18C1067.94 597.34 1062.59 602.18 1055.69 605.7C1048.95 609.073 1041.47 610.76 1033.25 610.76C1023.87 610.76 1015.43 608.853 1007.95 605.04C1000.47 601.08 994.532 595.213 990.132 587.44C985.878 579.667 983.752 570.207 983.752 559.06V488.44H1003.55V556.42C1003.55 568.3 1006.56 577.467 1012.57 583.92C1018.59 590.227 1026.8 593.38 1037.21 593.38C1047.92 593.38 1056.35 590.08 1062.51 583.48C1068.67 576.88 1071.75 567.273 1071.75 554.66V488.44H1091.77ZM1141.19 504.94V576C1141.19 581.867 1142.44 586.047 1144.93 588.54C1147.43 590.887 1151.75 592.06 1157.91 592.06H1172.65V609H1154.61C1143.47 609 1135.11 606.433 1129.53 601.3C1123.96 596.167 1121.17 587.733 1121.17 576V504.94H1105.55V488.44H1121.17V458.08H1141.19V488.44H1172.65V504.94H1141.19ZM1198.45 468.86C1194.64 468.86 1191.41 467.54 1188.77 464.9C1186.13 462.26 1184.81 459.033 1184.81 455.22C1184.81 451.407 1186.13 448.18 1188.77 445.54C1191.41 442.9 1194.64 441.58 1198.45 441.58C1202.12 441.58 1205.2 442.9 1207.69 445.54C1210.33 448.18 1211.65 451.407 1211.65 455.22C1211.65 459.033 1210.33 462.26 1207.69 464.9C1205.2 467.54 1202.12 468.86 1198.45 468.86ZM1208.13 488.44V609H1188.11V488.44H1208.13ZM1286.03 610.98C1274.74 610.98 1264.47 608.413 1255.23 603.28C1246.14 598.147 1238.95 590.887 1233.67 581.5C1228.54 571.967 1225.97 560.967 1225.97 548.5C1225.97 536.18 1228.61 525.327 1233.89 515.94C1239.32 506.407 1246.65 499.147 1255.89 494.16C1265.13 489.027 1275.47 486.46 1286.91 486.46C1298.35 486.46 1308.69 489.027 1317.93 494.16C1327.17 499.147 1334.43 506.333 1339.71 515.72C1345.14 525.107 1347.85 536.033 1347.85 548.5C1347.85 560.967 1345.07 571.967 1339.49 581.5C1334.07 590.887 1326.66 598.147 1317.27 603.28C1307.89 608.413 1297.47 610.98 1286.03 610.98ZM1286.03 593.38C1293.22 593.38 1299.97 591.693 1306.27 588.32C1312.58 584.947 1317.64 579.887 1321.45 573.14C1325.41 566.393 1327.39 558.18 1327.39 548.5C1327.39 538.82 1325.49 530.607 1321.67 523.86C1317.86 517.113 1312.87 512.127 1306.71 508.9C1300.55 505.527 1293.88 503.84 1286.69 503.84C1279.36 503.84 1272.61 505.527 1266.45 508.9C1260.44 512.127 1255.6 517.113 1251.93 523.86C1248.27 530.607 1246.43 538.82 1246.43 548.5C1246.43 558.327 1248.19 566.613 1251.71 573.36C1255.38 580.107 1260.22 585.167 1266.23 588.54C1272.25 591.767 1278.85 593.38 1286.03 593.38ZM1424.11 486.24C1438.78 486.24 1450.66 490.713 1459.75 499.66C1468.85 508.46 1473.39 521.22 1473.39 537.94V609H1453.59V540.8C1453.59 528.773 1450.59 519.607 1444.57 513.3C1438.56 506.847 1430.35 503.62 1419.93 503.62C1409.37 503.62 1400.94 506.92 1394.63 513.52C1388.47 520.12 1385.39 529.727 1385.39 542.34V609H1365.37V488.44H1385.39V505.6C1389.35 499.44 1394.71 494.673 1401.45 491.3C1408.35 487.927 1415.9 486.24 1424.11 486.24ZM1539.98 610.98C1530.74 610.98 1522.45 609.44 1515.12 606.36C1507.78 603.133 1501.99 598.733 1497.74 593.16C1493.48 587.44 1491.14 580.913 1490.7 573.58H1511.38C1511.96 579.593 1514.75 584.507 1519.74 588.32C1524.87 592.133 1531.54 594.04 1539.76 594.04C1547.38 594.04 1553.4 592.353 1557.8 588.98C1562.2 585.607 1564.4 581.353 1564.4 576.22C1564.4 570.94 1562.05 567.053 1557.36 564.56C1552.66 561.92 1545.4 559.353 1535.58 556.86C1526.63 554.513 1519.3 552.167 1513.58 549.82C1508 547.327 1503.16 543.733 1499.06 539.04C1495.1 534.2 1493.12 527.893 1493.12 520.12C1493.12 513.96 1494.95 508.313 1498.62 503.18C1502.28 498.047 1507.49 494.013 1514.24 491.08C1520.98 488 1528.68 486.46 1537.34 486.46C1550.68 486.46 1561.46 489.833 1569.68 496.58C1577.89 503.327 1582.29 512.567 1582.88 524.3H1562.86C1562.42 517.993 1559.85 512.933 1555.16 509.12C1550.61 505.307 1544.45 503.4 1536.68 503.4C1529.49 503.4 1523.77 504.94 1519.52 508.02C1515.26 511.1 1513.14 515.133 1513.14 520.12C1513.14 524.08 1514.38 527.38 1516.88 530.02C1519.52 532.513 1522.74 534.567 1526.56 536.18C1530.52 537.647 1535.94 539.333 1542.84 541.24C1551.49 543.587 1558.53 545.933 1563.96 548.28C1569.38 550.48 1574 553.853 1577.82 558.4C1581.78 562.947 1583.83 568.887 1583.98 576.22C1583.98 582.82 1582.14 588.76 1578.48 594.04C1574.81 599.32 1569.6 603.5 1562.86 606.58C1556.26 609.513 1548.63 610.98 1539.98 610.98Z" fill="#191D1D"/>
</svg>
