<svg xmlns="http://www.w3.org/2000/svg" viewBox="0 0 24 24" fill="#61DAFB">
  <circle cx="12" cy="12" r="2"/>
  <path d="M12 2C13.1 2 14 2.9 14 4C14 5.1 13.1 6 12 6C10.9 6 10 5.1 10 4C10 2.9 10.9 2 12 2M21 9V7L19 8L21 9M3 9L5 8L3 7V9M16 20C15.3 20.4 14.7 20 14.7 19.1C14.7 18.2 15.3 17.8 16 18.2C16.7 17.8 17.3 18.2 17.3 19.1C17.3 20 16.7 20.4 16 20M8 20C7.3 20.4 6.7 20 6.7 19.1C6.7 18.2 7.3 17.8 8 18.2C8.7 17.8 9.3 18.2 9.3 19.1C9.3 20 8.7 20.4 8 20M12 22C10.9 22 10 21.1 10 20C10 18.9 10.9 18 12 18C13.1 18 14 18.9 14 20C14 21.1 13.1 22 12 22Z"/>
</svg>